<svg xmlns="http://www.w3.org/2000/svg" viewBox="0 0 80 80" role="img" aria-label="ItundaFace 3D camera">
  <defs>
    <linearGradient id="itdf-3d-misc-camera-body" x1="15%" y1="0" x2="90%" y2="100%"><stop offset="0" stop-color="#6B7CA3"/><stop offset="55%" stop-color="#3E4C6B"/><stop offset="100%" stop-color="#1E273B"/></linearGradient>
    <radialGradient id="itdf-3d-misc-camera-lensring" cx="50%" cy="50%" r="50%"><stop offset="0" stop-color="#E4EAF5"/><stop offset="70%" stop-color="#B9C4DA"/><stop offset="100%" stop-color="#7F8CA8"/></radialGradient>
    <radialGradient id="itdf-3d-misc-camera-ground" cx="50%" cy="50%" r="50%"><stop offset="0" stop-color="#000000" stop-opacity=".18"/><stop offset="100%" stop-color="#000000" stop-opacity="0"/></radialGradient>
    <filter id="itdf-3d-misc-camera-shadow" x="-50%" y="-50%" width="200%" height="200%"><feDropShadow dx="0" dy="3" stdDeviation="3" flood-color="#000000" flood-opacity=".28"/></filter>
  </defs>
  <ellipse cx="40" cy="74" rx="26" ry="4" fill="url(#itdf-3d-misc-camera-ground)"/>
  <g filter="url(#itdf-3d-misc-camera-shadow)">
    <path d="M12 26h14l4-8h20l4 8h14a5 5 0 0 1 5 5v30a5 5 0 0 1-5 5H12a5 5 0 0 1-5-5V31a5 5 0 0 1 5-5Z" fill="url(#itdf-3d-misc-camera-body)"/>
    <path d="M12 26h14l4-8h6v43H12a5 5 0 0 1-5-5V31a5 5 0 0 1 5-5Z" fill="#22293D"/>
    <circle cx="40" cy="46" r="15" fill="url(#itdf-3d-misc-camera-lensring)"/>
    <circle cx="40" cy="46" r="9" fill="#2E3A54"/>
    <circle cx="60" cy="33" r="2.6" fill="#7472F4"/>
    <ellipse cx="34" cy="40" rx="6" ry="4" fill="#FFFFFF" opacity=".35"/>
  </g>
</svg>
