<svg xmlns="http://www.w3.org/2000/svg" viewBox="0 0 80 80" role="img" aria-label="ItundaFace 3D wrench">
  <defs>
    <linearGradient id="itdf-3d-misc-wrench-body" x1="15%" y1="0" x2="90%" y2="100%"><stop offset="0" stop-color="#8493B8"/><stop offset="55%" stop-color="#3E4C6B"/><stop offset="100%" stop-color="#1E273B"/></linearGradient>
    <radialGradient id="itdf-3d-misc-wrench-ground" cx="50%" cy="50%" r="50%"><stop offset="0" stop-color="#000000" stop-opacity=".18"/><stop offset="100%" stop-color="#000000" stop-opacity="0"/></radialGradient>
    <filter id="itdf-3d-misc-wrench-shadow" x="-50%" y="-50%" width="200%" height="200%"><feDropShadow dx="0" dy="3" stdDeviation="3" flood-color="#000000" flood-opacity=".28"/></filter>
  </defs>
  <ellipse cx="40" cy="75" rx="24" ry="4" fill="url(#itdf-3d-misc-wrench-ground)"/>
  <g filter="url(#itdf-3d-misc-wrench-shadow)">
    <path d="M51 11c-8 0-14.5 6.5-14.5 14.5 0 2.3.5 4.5 1.5 6.4L14.5 55.4c-2.4 2.4-2.4 6.3 0 8.7l1.4 1.4c2.4 2.4 6.3 2.4 8.7 0L48.1 42c1.9 1 4.1 1.5 6.4 1.5C62.5 43.5 69 37 69 29S62.5 14.5 54.5 14.5" fill="none" stroke="url(#itdf-3d-misc-wrench-body)" stroke-width="9" stroke-linecap="round" stroke-linejoin="round"/>
    <circle cx="20" cy="60" r="3.2" fill="#7472F4"/>
    <path d="M45 20l4-4" stroke="#FFFFFF" stroke-opacity=".4" stroke-width="3" stroke-linecap="round"/>
  </g>
</svg>
